<?xml version="1.0" encoding="UTF-8"?>
<svg width="32px" height="32px" viewBox="0 0 32 32" version="1.1" xmlns="http://www.w3.org/2000/svg" xmlns:xlink="http://www.w3.org/1999/xlink">
    <!-- Generator: Sketch 49 (51002) - http://www.bohemiancoding.com/sketch -->
    <title>Path</title>
    <desc>Created with Sketch.</desc>
    <defs></defs>
    <g id="Page-1" stroke="none" stroke-width="1" fill="none" fill-rule="evenodd">
        <g id="1-主页出借人版" transform="translate(-675.000000, -76.000000)" fill="#FFFFFF">
            <path d="M705.097413,93.1514862 C705.872676,93.1514862 706.499976,92.5244078 706.5,91.7499633 C706.5,90.9758111 705.872496,90.3484404 705.097413,90.3484404 L692.15255,90.3484404 L692.15255,77.4015963 C692.15255,76.627803 691.524452,76 690.749963,76 C689.975493,76 689.347413,76.6277847 689.347413,77.4015963 L689.347413,90.3484037 L676.40255,90.3484037 C675.627551,90.3484037 675,90.9758368 675,91.75 C675,92.5244717 675.627309,93.1515963 676.40255,93.1515963 L689.347486,93.1515963 L689.347486,106.098404 C689.347486,106.87248 689.975391,107.5 690.750037,107.5 C691.524716,107.5 692.152624,106.872484 692.152624,106.098404 L692.152624,93.1515963 L703.696098,93.1515963 L705.097413,93.1514862 Z" id="Path"></path>
        </g>
    </g>
</svg>