<?xml version="1.0" encoding="UTF-8"?>
<svg width="11px" height="21px" viewBox="0 0 11 21" version="1.1" xmlns="http://www.w3.org/2000/svg" xmlns:xlink="http://www.w3.org/1999/xlink">
    <!-- Generator: Sketch 49 (51002) - http://www.bohemiancoding.com/sketch -->
    <title>Shape</title>
    <desc>Created with Sketch.</desc>
    <defs></defs>
    <g id="Page-1" stroke="none" stroke-width="1" fill="none" fill-rule="evenodd">
        <g id="4-我的信息" transform="translate(-707.000000, -1380.000000)" fill="#DDDDDD" fill-rule="nonzero">
            <g id="微信账号-copy" transform="translate(30.000000, 1273.000000)">
                <g id="左右-copy" transform="translate(677.000000, 107.000000)">
                    <path d="M10.7586217,11.017902 L1.41115149,20.7479816 C1.26155298,20.9037035 1.05490535,21 0.826629975,21 C0.370098954,21 2.24520558e-10,20.6147522 0,20.1395345 C0,19.9019154 0.0925296719,19.6868093 0.242108455,19.5310874 L9.09934306,10.3113097 L0.526505475,1.38592663 C0.390049369,1.23901688 0.305965571,1.03861819 0.305965571,0.817801675 C0.305965571,0.366144597 0.65771251,0 1.09160938,0 C1.30376261,0 1.49626143,0.0875255051 1.6376114,0.229772424 L10.5260642,9.48204613 C10.6335517,9.59592583 10.7088344,9.74308206 10.7363822,9.90730793 C10.7193326,9.79283254 10.7428942,9.77808405 10.7586217,9.80261009 C10.9077663,9.95822924 11,10.1730067 11,10.4102355 C11,10.6474438 10.9077663,10.8622418 10.7586019,11.017861 L10.7586217,11.017902 Z" id="Shape"></path>
                </g>
            </g>
        </g>
    </g>
</svg>