<?xml version="1.0" encoding="UTF-8"?>
<svg width="63px" height="63px" viewBox="0 0 63 63" version="1.1" xmlns="http://www.w3.org/2000/svg" xmlns:xlink="http://www.w3.org/1999/xlink">
    <!-- Generator: Sketch 49 (51002) - http://www.bohemiancoding.com/sketch -->
    <title>默认头像</title>
    <desc>Created with Sketch.</desc>
    <defs></defs>
    <g id="Page-1" stroke="none" stroke-width="1" fill="none" fill-rule="evenodd">
        <g id="4-选择身份" transform="translate(-30.000000, -53.000000)">
            <g id="导航-copy" transform="translate(0.000000, 40.000000)">
                <g id="默认头像" transform="translate(30.000000, 13.000000)">
                    <circle id="Oval-34" stroke-opacity="0.603968524" stroke="#FFFFFF" stroke-width="4" cx="31.5" cy="31.5" r="29.5"></circle>
                    <path d="M58.9812214,31.5468594 C58.9812214,46.7040018 46.6800978,58.9935528 31.5049958,58.9935528 C16.331285,58.9935528 4.03452486,46.7039386 4.03452486,31.5468594 C4.03452486,19.9125176 11.2761007,9.97276498 21.5032067,5.97820879 C24.5932695,4.73166086 27.9691682,4.04325175 31.5056914,4.04325175 C35.046578,4.04325175 38.4195677,4.73096526 41.5125395,5.97820879 C51.7390132,9.97276498 58.9812214,19.9125808 58.9812214,31.5468594 L58.9812214,31.5468594 L58.9812214,31.5468594 Z M20.9458268,25.7584934 C20.9458268,30.3838489 23.315735,34.38846 26.7608161,36.348649 C28.1895527,37.161637 29.7982648,37.6304838 31.5049958,37.6304838 C33.1518404,37.6304838 34.7044604,37.1919281 36.0957601,36.4343366 C39.6222284,34.5115844 42.0685282,30.4580272 42.0685282,25.7592523 C42.0685282,19.2168993 37.3308619,13.8916254 31.505059,13.8916254 C25.6827974,13.8909297 20.9458268,19.2162669 20.9458268,25.7584934 L20.9458268,25.7584934 L20.9458268,25.7584934 Z M31.6166109,57.2149202 C39.6430971,57.2149202 46.8032223,53.5235903 51.4962425,47.7467968 C50.9418347,43.1898648 46.5014504,39.3105915 40.2170454,37.3755713 C37.8435326,39.5107399 34.8110797,40.7954836 31.504237,40.7954836 C28.1239749,40.7954836 25.0296752,39.4416207 22.6330806,37.2135554 C16.5199241,38.9583557 12.0422293,42.5172652 10.9923517,46.7817845 C15.6493262,53.1080532 23.1551736,57.2149202 31.6166109,57.2149202 L31.6166109,57.2149202 L31.6166109,57.2149202 Z" id="Shape" fill="#FFFFFF"></path>
                </g>
            </g>
        </g>
    </g>
</svg>